<svg width="26" height="24" viewBox="0 0 26 24" fill="none" xmlns="http://www.w3.org/2000/svg">
<path d="M22.6794 4.60999C22.1427 4.099 21.5054 3.69364 20.804 3.41708C20.1026 3.14052 19.3509 2.99817 18.5916 2.99817C17.8324 2.99817 17.0806 3.14052 16.3793 3.41708C15.6779 3.69364 15.0406 4.099 14.5039 4.60999L13.39 5.66999L12.2761 4.60999C11.192 3.5783 9.7216 2.9987 8.1884 2.9987C6.6552 2.9987 5.1848 3.5783 4.10067 4.60999C3.01653 5.64169 2.40747 7.04096 2.40747 8.49999C2.40747 9.95903 3.01653 11.3583 4.10067 12.39L5.21455 13.45L13.39 21.23L21.5655 13.45L22.6794 12.39C23.2163 11.8792 23.6423 11.2728 23.9329 10.6053C24.2235 9.93789 24.3731 9.22248 24.3731 8.49999C24.3731 7.77751 24.2235 7.0621 23.9329 6.39464C23.6423 5.72718 23.2163 5.12075 22.6794 4.60999Z" stroke="black" stroke-width="2" stroke-linecap="round" stroke-linejoin="round"/>
</svg>
