<svg width="17" height="17" viewBox="0 0 17 17" fill="none" xmlns="http://www.w3.org/2000/svg">
<path d="M14.8434 2.47093C14.4768 2.06629 14.0417 1.7453 13.5627 1.5263C13.0837 1.3073 12.5704 1.19458 12.0519 1.19458C11.5335 1.19458 11.0201 1.3073 10.5411 1.5263C10.0621 1.7453 9.62698 2.06629 9.26046 2.47093L8.49981 3.3103L7.73916 2.47093C6.99882 1.65397 5.9947 1.195 4.94771 1.195C3.90071 1.195 2.89659 1.65397 2.15626 2.47093C1.41592 3.28788 1 4.39592 1 5.55127C1 6.70663 1.41592 7.81466 2.15626 8.63162L2.91691 9.471L8.49981 15.6317L14.0827 9.471L14.8434 8.63162C15.21 8.22717 15.5009 7.74696 15.6994 7.21843C15.8979 6.68989 16 6.12339 16 5.55127C16 4.97916 15.8979 4.41266 15.6994 3.88412C15.5009 3.35558 15.21 2.87537 14.8434 2.47093Z" stroke="#957F7F" stroke-width="2" stroke-linecap="round" stroke-linejoin="round"/>
</svg>
