<svg width="16" height="16" viewBox="0 0 16 16" fill="none" xmlns="http://www.w3.org/2000/svg">
<g clip-path="url(#clip0_5_87)">
<path d="M8 16C12.4183 16 16 12.4183 16 8C16 3.58172 12.4183 0 8 0C3.58172 0 0 3.58172 0 8C0 12.4183 3.58172 16 8 16Z" fill="#393A3D"/>
<path fill-rule="evenodd" clip-rule="evenodd" d="M3.62124 7.91553C5.9534 6.89944 7.50854 6.22958 8.28666 5.90593C10.5083 4.98186 10.97 4.82134 11.2709 4.81604C11.3371 4.81487 11.485 4.83127 11.5809 4.90905C11.6618 4.97472 11.6841 5.06343 11.6947 5.1257C11.7054 5.18796 11.7187 5.3298 11.7081 5.44063C11.5877 6.70562 11.0668 9.77541 10.8018 11.1922C10.6896 11.7917 10.4688 11.9927 10.255 12.0124C9.79046 12.0552 9.43769 11.7054 8.98772 11.4104C8.28362 10.9489 7.88584 10.6616 7.20239 10.2112C6.41254 9.69067 6.92456 9.4046 7.3747 8.93707C7.4925 8.81472 9.53943 6.95288 9.57905 6.78398C9.584 6.76286 9.5886 6.68412 9.54182 6.64254C9.49505 6.60097 9.42601 6.61518 9.37619 6.62649C9.30557 6.64252 8.18075 7.38598 6.00174 8.85687C5.68246 9.07611 5.39328 9.18293 5.13417 9.17733C4.84853 9.17116 4.29907 9.01583 3.8906 8.88305C3.3896 8.7202 2.99142 8.63409 3.02609 8.35752C3.04415 8.21346 3.24253 8.06613 3.62124 7.91553Z" fill="white"/>
</g>
<defs>
<clipPath id="clip0_5_87">
<rect width="16" height="16" fill="white"/>
</clipPath>
</defs>
</svg>
